<svg id="Layer_1" enable-background="new 0 0 506.231 506.231" height="512" viewBox="0 0 506.231 506.231" width="512" xmlns="http://www.w3.org/2000/svg"><g><path d="m95.235 329.228h-60.736v36.448h76.496v-20.688c0-8.704-7.056-15.76-15.76-15.76z" fill="#55c7a6"/><g><path d="m486.231 289.976c-11.046 0-20 8.954-20 20v58.7h-426.231v-166.7c0-11.046-8.954-20-20-20s-20 8.954-20 20v264.886c0 11.046 8.954 20 20 20s20-8.954 20-20v-36.207h426.231v36.207c0 11.046 8.954 20 20 20s20-8.954 20-20v-156.886c0-11.046-8.954-20-20-20z" fill="#965028"/></g><path d="m39.947 359.676h426.534v42.381h-426.534z" fill="#c8e6eb"/><ellipse cx="88.94" cy="291.286" fill="#ffb69e" rx="37.942" ry="37.942" transform="matrix(.16 -.987 .987 .16 -212.831 332.419)"/><path d="m439.999 291.286h-268.524c-14.625 0-26.482 11.856-26.482 26.482v70.169h321.488v-70.169c0-14.626-11.856-26.482-26.482-26.482z" fill="#ff6473"/><g><path d="m292.986 358.444h-147.993c-10.401 0-18.833-8.432-18.833-18.833s8.432-18.833 18.833-18.833h147.993c10.401 0 18.833 8.432 18.833 18.833s-8.431 18.833-18.833 18.833z" fill="#ffb69e"/></g><path d="m335.342 137.587c-2.871-1.657-6.54-.672-8.196 2.196l-1.205 2.087-4.888-2.822c.67-2.282 1.036-4.694 1.036-7.193s-.366-4.911-1.036-7.193l4.887-2.822 1.205 2.087c1.111 1.925 3.128 3.001 5.202 3.001 1.018 0 2.049-.259 2.994-.805 2.87-1.657 3.853-5.326 2.196-8.196l-8.41-14.567c-1.656-2.869-5.322-3.853-8.196-2.196-2.87 1.657-3.853 5.326-2.196 8.196l1.205 2.087-4.894 2.826c-3.321-3.485-7.616-6.029-12.452-7.196v-5.644h2.41c3.313 0 6-2.687 6-6s-2.687-6-6-6h-16.821c-3.313 0-6 2.687-6 6s2.687 6 6 6h2.411v5.644c-4.836 1.167-9.131 3.711-12.453 7.196l-4.893-2.825 1.206-2.088c1.656-2.87.674-6.539-2.196-8.196-2.869-1.656-6.539-.672-8.196 2.196l-4.202 7.277c-.001.002-.003.005-.005.007s-.002.005-.004.007l-4.201 7.276c-1.656 2.87-.674 6.539 2.196 8.196.944.545 1.977.805 2.994.805 2.074 0 4.091-1.076 5.202-3.001l1.205-2.087 4.888 2.822c-.67 2.282-1.036 4.694-1.036 7.193s.366 4.911 1.036 7.193l-4.887 2.822-1.205-2.088c-1.656-2.868-5.326-3.854-8.196-2.195-2.87 1.657-3.853 5.326-2.196 8.196l4.201 7.276c.001.002.002.005.004.007.001.002.002.003.003.005l4.203 7.278c1.111 1.925 3.128 3.001 5.202 3.001 1.018 0 2.05-.259 2.994-.805 2.87-1.657 3.853-5.326 2.196-8.196l-1.205-2.087 4.893-2.825c3.321 3.485 7.617 6.029 12.453 7.196v5.644h-2.411c-3.313 0-6 2.687-6 6s2.687 6 6 6h16.821c3.313 0 6-2.687 6-6s-2.687-6-6-6h-2.41v-5.644c4.835-1.167 9.13-3.711 12.452-7.196l4.894 2.826-1.205 2.087c-1.656 2.87-.674 6.54 2.196 8.196.945.545 1.977.805 2.994.805 2.074 0 4.091-1.076 5.202-3.001l4.204-7.282s.001-.001.001-.001c0-.001.001-.001.001-.002l4.204-7.281c1.656-2.87.674-6.54-2.196-8.197zm-38.748 7.763c-7.441 0-13.494-6.054-13.494-13.495s6.054-13.494 13.494-13.494 13.494 6.053 13.494 13.494-6.053 13.495-13.494 13.495z" fill="#a5c8cd"/><path d="m138.117 80.483c-3.644-2.104-8.3-.855-10.402 2.787l-1.53 2.65-6.203-3.581c.851-2.896 1.315-5.958 1.315-9.129s-.464-6.233-1.315-9.129l6.203-3.581 1.53 2.65c1.411 2.443 3.97 3.809 6.602 3.809 1.292 0 2.601-.329 3.8-1.021 3.642-2.103 4.89-6.76 2.787-10.402l-10.674-18.491c-2.103-3.642-6.76-4.892-10.402-2.787-3.642 2.103-4.89 6.76-2.787 10.402l1.529 2.649-6.211 3.586c-4.215-4.422-9.666-7.651-15.803-9.133v-7.162h3.059c4.206 0 7.615-3.41 7.615-7.615s-3.41-7.615-7.615-7.615h-21.349c-4.206 0-7.615 3.41-7.615 7.615s3.409 7.615 7.615 7.615h3.059v7.163c-6.137 1.481-11.589 4.71-15.804 9.133l-6.211-3.586 1.529-2.649c2.103-3.642.855-8.299-2.787-10.402-3.642-2.104-8.3-.855-10.402 2.787l-10.674 18.488c-2.103 3.642-.855 8.299 2.787 10.402 1.199.692 2.508 1.021 3.8 1.021 2.632 0 5.192-1.366 6.602-3.809l1.53-2.65 6.203 3.581c-.85 2.896-1.315 5.958-1.315 9.129 0 3.172.464 6.233 1.315 9.129l-6.203 3.581-1.53-2.65c-2.103-3.642-6.759-4.891-10.402-2.787-3.642 2.103-4.89 6.76-2.787 10.402l10.674 18.488c1.411 2.443 3.97 3.809 6.602 3.809 1.292 0 2.601-.329 3.8-1.021 3.642-2.103 4.89-6.76 2.787-10.402l-1.529-2.647 6.211-3.586c4.215 4.423 9.667 7.652 15.804 9.133v7.163h-3.059c-4.206 0-7.615 3.41-7.615 7.615s3.409 7.615 7.615 7.615h21.348c4.206 0 7.615-3.41 7.615-7.615s-3.41-7.615-7.615-7.615h-3.059v-7.163c6.137-1.481 11.588-4.71 15.803-9.133l6.211 3.586-1.529 2.649c-2.103 3.642-.855 8.299 2.787 10.402 1.199.692 2.508 1.021 3.8 1.021 2.632 0 5.192-1.366 6.602-3.809l10.674-18.488c2.104-3.641.856-8.299-2.786-10.402zm-49.177 9.853c-9.444 0-17.127-7.683-17.127-17.127s7.683-17.127 17.127-17.127 17.127 7.683 17.127 17.127-7.683 17.127-17.127 17.127z" fill="#a5c8cd"/><path d="m209.544 158.889h-13.179v-18.293c0-3.108-2.519-5.627-5.627-5.627h-18.746c-3.108 0-5.627 2.519-5.627 5.627v18.293h-13.179c-3.108 0-5.627 2.519-5.627 5.627v18.746c0 3.108 2.519 5.627 5.627 5.627h13.179v62.663c0 3.108 2.519 5.627 5.627 5.627h18.746c3.108 0 5.627-2.519 5.627-5.627v-62.663h13.179c3.108 0 5.627-2.519 5.627-5.627v-18.746c0-3.107-2.519-5.627-5.627-5.627z" fill="#783c28"/></g></svg>